#!OML:ASF F:\VICON\USERDATA\INSTALL\rory3\rory3.ASF
:FULLY-SPECIFIED
:DEGREES
858
root -1.54562 18.1995 -11.687 5.64004 -44.7494 15.3727
lowerback 14.2812 0.13147 3.01227
upperback 5.24726 0.638809 8.00858
thorax -2.50465 0.184978 6.69097
lowerneck -6.90589 -12.06 -10.7425
upperneck 30.1072 -18.5584 8.21898
head 13.0289 -8.55787 2.28078
rclavicle 2.38542e-014 -9.54166e-015
rhumerus 5.2148 -22.4118 -79.5284
rradius 43.2442
rwrist -10.9227
rhand -20.7495 -13.9352
rfingers 7.12502
rthumb 5.61621 -43.8407
lclavicle 2.38542e-014 -9.54166e-015
lhumerus -16.9813 -52.0065 95.6859
lradius 63.6493
lwrist 43.2783
lhand -14.0067 41.355
lfingers 7.12502
lthumb 12.1226 -289.016
rfemur -33.9011 -4.57568 9.45649
rtibia 31.6251
rfoot -13.9647 -4.93914
rtoes 14.2886
lfemur -25.5054 0.397688 -20.8783
ltibia 22.5598
lfoot 6.512 9.29984
ltoes -22.2964
859
root -1.552 18.2038 -11.694 5.43429 -44.6283 15.6049
lowerback 14.3001 0.253298 3.31286
upperback 5.24959 0.839709 8.04717
thorax -2.52703 0.285692 6.52643
lowerneck -7.12307 -12.2975 -10.4151
upperneck 30.1382 -18.8833 8.01882
head 13.0628 -8.66988 2.08621
rclavicle 1.11319e-014 2.8625e-014
rhumerus 4.74523 -21.2128 -80.4571
rradius 43.3751
rwrist -10.9142
rhand -20.1145 -14.0984
rfingers 7.12502
rthumb 6.22926 -43.9868
lclavicle 1.11319e-014 2.8625e-014
lhumerus -17.6153 -51.0297 95.2248
lradius 62.7422
lwrist 44.075
lhand -14.8242 41.4691
lfingers 7.12502
lthumb 11.3343 -288.857
rfemur -33.7882 -4.3864 9.1779
rtibia 31.6293
rfoot -14.0765 -5.00258
rtoes 14.6319
lfemur -25.7873 0.512401 -21.0721
ltibia 22.9764
lfoot 6.88767 8.91229
ltoes -22.5073
860
root -1.5572 18.2101 -11.6998 5.24169 -44.5648 15.8424
lowerback 14.351 0.379652 3.45993
upperback 5.1886 1.03847 8.23004
thorax -2.63678 0.383392 6.61031
lowerneck -7.04109 -12.4682 -10.5302
upperneck 30.0059 -19.0961 8.0103
head 13.0284 -8.77645 2.06881
rclavicle 1.11319e-014 3.81667e-014
rhumerus 4.23894 -19.4509 -81.0946
rradius 43.3688
rwrist -11.2391
rhand -19.5394 -14.3279
rfingers 7.12502
rthumb 6.7845 -44.1992
lclavicle 1.11319e-014 3.81667e-014
lhumerus -18.376 -49.8935 94.9906
lradius 61.9752
lwrist 45.4424
lhand -15.5082 41.8828
lfingers 7.12502
lthumb 10.6745 -288.408
rfemur -33.7347 -4.25631 8.92489
rtibia 31.6625
rfoot -14.1421 -5.01531
rtoes 14.7228
lfemur -26.0293 0.49707 -21.228
ltibia 23.3081
lfoot 7.04207 8.29917
ltoes -23.95
861
root -1.56334 18.2116 -11.7027 4.98194 -44.5342 16.1069
lowerback 14.4108 0.557268 3.58625
upperback 5.16351 1.29841 8.38605
thorax -2.71921 0.510933 6.66574
lowerneck -6.93314 -12.6842 -10.511
upperneck 29.833 -19.3603 7.90357
head 12.9489 -8.90372 1.98972
rclavicle 1.59028e-014 4.13472e-014
rhumerus 3.82008 -17.8358 -81.7256
rradius 43.2116
rwrist -11.3149
rhand -18.7002 -14.2531
rfingers 7.12502
rthumb 7.59458 -44.0967
lclavicle 1.59028e-014 4.13472e-014
lhumerus -18.9719 -48.8786 94.6298
lradius 61.2385
lwrist 47.1638
lhand -15.7892 42.2572
lfingers 7.12502
lthumb 10.4035 -288.02
rfemur -33.6304 -4.13573 8.65785
rtibia 31.7018
rfoot -14.2037 -4.99812
rtoes 15.042
lfemur -26.1675 0.385442 -21.3652
ltibia 23.6164
lfoot 7.2002 8.05015
ltoes -24.6507
862
root -1.57019 18.2102 -11.7033 4.60405 -44.5145 16.4446
lowerback 14.5013 0.703305 3.65323
upperback 5.20629 1.50345 8.53972
thorax -2.7428 0.609504 6.76182
lowerneck -6.96811 -12.9277 -10.5184
upperneck 29.7645 -19.6373 7.70987
head 12.9359 -9.03941 1.86863
rclavicle -3.81667e-014 -1.20861e-013
rhumerus 3.5097 -15.9442 -82.3486
rradius 42.9671
rwrist -11.3877
rhand -17.9776 -14.1593
rfingers 7.12502
rthumb 8.29199 -43.9766
lclavicle -3.81667e-014 -1.20861e-013
lhumerus -19.627 -47.7212 94.3465
lradius 60.8579
lwrist 50.1442
lhand -19.6903 42.8878
lfingers 7.12502
lthumb 6.63881 -287.236
rfemur -33.4483 -3.98154 8.32213
rtibia 31.7358
rfoot -14.2496 -4.92499
rtoes 15.4791
lfemur -26.1973 0.368641 -21.5899
ltibia 23.8921
lfoot 7.44557 7.92084
ltoes -24.632
863
root -1.57549 18.2137 -11.7053 4.34624 -44.4627 16.6361
lowerback 14.5561 0.835038 3.89897
upperback 5.22078 1.71353 8.70683
thorax -2.77293 0.711194 6.76843
lowerneck -6.83984 -13.1622 -10.7049
upperneck 29.6663 -19.9588 7.75198
head 12.9352 -9.19426 1.86336
rclavicle -2.54444e-014 -8.90555e-014
rhumerus 3.15508 -13.9389 -82.9082
rradius 42.6713
rwrist -11.3954
rhand -17.2397 -14.134
rfingers 7.12502
rthumb 9.004 -43.9218
lclavicle -2.54444e-014 -8.90555e-014
lhumerus -19.9867 -46.0607 93.7665
lradius 59.8005
lwrist 49.8981
lhand -20.0558 43.0541
lfingers 7.12502
lthumb 6.28594 -287.059
rfemur -33.269 -3.77409 8.0689
rtibia 31.7602
rfoot -14.3453 -4.83189
rtoes 16.3594
lfemur -26.2546 0.448317 -21.7442
ltibia 24.1708
lfoot 7.79014 7.52009
ltoes -25.321
